<svg width="145" height="36" viewBox="0 0 145 36" fill="none" xmlns="http://www.w3.org/2000/svg">
<path d="M59.6001 30.4559C58.0321 30.4559 56.6641 30.1999 55.4961 29.6879C54.3281 29.1599 53.3601 28.4559 52.5921 27.5759C51.8401 26.6959 51.2801 25.7199 50.9121 24.6479C50.5441 23.5759 50.3601 22.5039 50.3601 21.4319V20.9039C50.3601 19.7999 50.5441 18.7199 50.9121 17.6639C51.2801 16.6079 51.8321 15.6479 52.5681 14.7839C53.3201 13.9199 54.2481 13.2319 55.3521 12.7199C56.4721 12.2079 57.7601 11.9519 59.2161 11.9519C60.8001 11.9519 62.2001 12.2479 63.4161 12.8399C64.6321 13.4159 65.6081 14.2239 66.3441 15.2639C67.0801 16.2879 67.5041 17.4799 67.6161 18.8399H63.6801C63.5841 18.1999 63.3281 17.6399 62.9121 17.1599C62.5121 16.6799 61.9921 16.3039 61.3521 16.0319C60.7281 15.7599 60.0161 15.6239 59.2161 15.6239C58.4481 15.6239 57.7601 15.7599 57.1521 16.0319C56.5601 16.3039 56.0481 16.6879 55.6161 17.1839C55.2001 17.6799 54.8801 18.2719 54.6561 18.9599C54.4481 19.6319 54.3441 20.3759 54.3441 21.1919C54.3441 22.0399 54.4561 22.8159 54.6801 23.5199C54.9201 24.2079 55.2641 24.8079 55.7121 25.3199C56.1601 25.8159 56.7121 26.1999 57.3681 26.4719C58.0401 26.7439 58.7841 26.8799 59.6001 26.8799C60.6881 26.8799 61.6321 26.6559 62.4321 26.2079C63.2321 25.7599 63.8081 25.1679 64.1601 24.4319L63.6801 27.1199V22.9439H67.3041V26.6879C66.5521 27.9039 65.5121 28.8399 64.1841 29.4959C62.8721 30.1359 61.3441 30.4559 59.6001 30.4559ZM59.0961 23.7119V20.8799H68.7441V23.7119H59.0961Z" fill="white"/>
<path d="M71.6963 29.9999V16.8479H75.5363V29.9999H71.6963ZM69.9443 19.6799V16.8479H75.5363V19.6799H69.9443ZM73.1843 15.5519C72.4643 15.5519 71.9283 15.3679 71.5763 14.9999C71.2403 14.6159 71.0723 14.1359 71.0723 13.5599C71.0723 12.9679 71.2403 12.4879 71.5763 12.1199C71.9283 11.7359 72.4643 11.5439 73.1843 11.5439C73.9043 11.5439 74.4323 11.7359 74.7683 12.1199C75.1203 12.4879 75.2963 12.9679 75.2963 13.5599C75.2963 14.1359 75.1203 14.6159 74.7683 14.9999C74.4323 15.3679 73.9043 15.5519 73.1843 15.5519Z" fill="white"/>
<path d="M84.2719 35.2319C83.6319 35.2319 82.9759 35.2079 82.3039 35.1599C81.6319 35.1119 81.0159 35.0479 80.4559 34.9679V31.7279C81.0159 31.8079 81.6319 31.8719 82.3039 31.9199C82.9919 31.9839 83.6159 32.0159 84.1759 32.0159C85.2159 32.0159 86.0559 31.8959 86.6959 31.6559C87.3519 31.4159 87.8319 31.0479 88.1359 30.5519C88.4399 30.0719 88.5919 29.4479 88.5919 28.6799V26.0639L89.2879 24.5279C89.2559 25.6959 89.0239 26.6959 88.5919 27.5279C88.1759 28.3599 87.5919 28.9999 86.8399 29.4479C86.0879 29.8799 85.1919 30.0959 84.1519 30.0959C83.2559 30.0959 82.4399 29.9359 81.7039 29.6159C80.9839 29.2799 80.3679 28.8159 79.8559 28.2239C79.3439 27.6319 78.9519 26.9439 78.6799 26.1599C78.4079 25.3599 78.2719 24.4959 78.2719 23.5679V23.0159C78.2719 22.0879 78.4159 21.2239 78.7039 20.4239C78.9919 19.6239 79.4079 18.9279 79.9519 18.3359C80.4959 17.7439 81.1439 17.2879 81.8959 16.9679C82.6479 16.6319 83.4799 16.4639 84.3919 16.4639C85.4479 16.4639 86.3599 16.6959 87.1279 17.1599C87.9119 17.6239 88.5279 18.3039 88.9759 19.1999C89.4239 20.0959 89.6639 21.1759 89.6959 22.4399L89.1679 22.5839V16.8479H92.2159V28.4399C92.2159 30.0559 91.9279 31.3599 91.3519 32.3519C90.7759 33.3439 89.8959 34.0719 88.7119 34.5359C87.5439 34.9999 86.0639 35.2319 84.2719 35.2319ZM85.3519 26.8559C85.9439 26.8559 86.4799 26.7279 86.9599 26.4719C87.4399 26.1999 87.8159 25.8159 88.0879 25.3199C88.3759 24.8239 88.5199 24.2239 88.5199 23.5199V22.8239C88.5199 22.1359 88.3679 21.5599 88.0639 21.0959C87.7759 20.6159 87.3919 20.2559 86.9119 20.0159C86.4319 19.7599 85.9199 19.6319 85.3759 19.6319C84.7359 19.6319 84.1679 19.7839 83.6719 20.0879C83.1759 20.3919 82.7919 20.8159 82.5199 21.3599C82.2479 21.9039 82.1119 22.5439 82.1119 23.2799C82.1119 24.0319 82.2479 24.6799 82.5199 25.2239C82.8079 25.7519 83.1919 26.1599 83.6719 26.4479C84.1679 26.7199 84.7279 26.8559 85.3519 26.8559Z" fill="white"/>
<path d="M99.237 29.9999V15.4319H103.173V29.9999H99.237ZM94.317 15.9119V12.4799H108.117V15.9119H94.317Z" fill="white"/>
<path d="M110.204 29.9999V16.8479H114.044V29.9999H110.204ZM108.452 19.6799V16.8479H114.044V19.6799H108.452ZM111.692 15.5519C110.972 15.5519 110.436 15.3679 110.084 14.9999C109.748 14.6159 109.58 14.1359 109.58 13.5599C109.58 12.9679 109.748 12.4879 110.084 12.1199C110.436 11.7359 110.972 11.5439 111.692 11.5439C112.412 11.5439 112.94 11.7359 113.276 12.1199C113.628 12.4879 113.804 12.9679 113.804 13.5599C113.804 14.1359 113.628 14.6159 113.276 14.9999C112.94 15.3679 112.412 15.5519 111.692 15.5519Z" fill="white"/>
<path d="M116.132 29.9999L120.212 22.9439L120.116 23.5439L116.276 16.8479H120.428L122.804 21.3119H123.188L125.42 16.8479H129.332L125.66 23.5919L125.756 23.0879L130.076 29.9999H125.9L123.068 25.2239H122.684L120.02 29.9999H116.132Z" fill="white"/>
<path d="M130.546 29.9999L134.626 22.9439L134.53 23.5439L130.69 16.8479H134.842L137.218 21.3119H137.602L139.834 16.8479H143.746L140.074 23.5919L140.17 23.0879L144.49 29.9999H140.314L137.482 25.2239H137.098L134.434 29.9999H130.546Z" fill="white"/>
<path d="M29.6036 7.11704C29.6036 7.13139 29.6036 7.13139 29.6036 7.14574C29.1732 7.13139 28.7427 7.11704 28.2778 7.11704H15.0193L16.8617 5.59605C18.5492 4.17551 20.4088 2.86975 22.5612 2.86975C24.7307 2.86975 26.5904 4.17551 28.2778 5.59605L29.242 6.39959C29.4831 6.58613 29.6036 6.84441 29.6036 7.11704Z" fill="white"/>
<path d="M35.8854 18.8965C36.557 18.8965 37.0907 18.4373 37.0907 17.8634V16.6007C37.0907 10.9616 35.0245 9.25403 28.2747 9.25403H17.4269H13.0534C6.30368 9.25403 4.23743 10.9759 4.23743 16.6007V17.2177C4.23743 17.7916 4.77121 18.2364 5.44274 18.2364C6.88911 18.2364 8.04277 19.2122 8.04277 20.4031C8.04277 21.5941 6.88911 22.5842 5.44274 22.5842C4.77121 22.5842 4.23743 23.029 4.23743 23.603V24.22C4.23743 29.8591 6.30368 31.5666 13.0534 31.5666H17.4097H28.2575C35.0073 31.5666 37.0735 29.8448 37.0735 24.22C37.0735 23.6604 36.5397 23.2012 35.8682 23.2012C34.4218 23.2012 33.2682 22.2398 33.2682 21.0488C33.2854 19.8579 34.439 18.8965 35.8854 18.8965ZM18.6322 27.0611C18.6322 27.6207 18.0812 28.0798 17.4097 28.0798C16.7382 28.0798 16.1872 27.6207 16.1872 27.0611V23.2155C16.1872 22.6559 16.7382 22.1968 17.4097 22.1968C18.0812 22.1968 18.6322 22.6559 18.6322 23.2155V27.0611ZM18.6322 17.6051C18.6322 18.1647 18.0812 18.6239 17.4097 18.6239C16.7382 18.6239 16.1872 18.1647 16.1872 17.6051V13.7596C16.1872 13.2 16.7382 12.7408 17.4097 12.7408C18.0812 12.7408 18.6322 13.2 18.6322 13.7596V17.6051Z" fill="white"/>
</svg>
